<?xml version="1.0"?>
<svg xmlns="http://www.w3.org/2000/svg" viewBox="0 0 64 64" width="512" height="512"><g id="Buy"><polygon points="41 7 30.17 7 13 7 13 23 43 23 43 13.959 43 7 41 7" style="fill:#a9e47f"/><path d="M11.5,60.66a1.965,1.965,0,0,0,1.11.34H27.46a1.923,1.923,0,0,0,1-.27L41.86,53a2.013,2.013,0,0,0,1-1.74,1.967,1.967,0,0,0-.27-.99,1.988,1.988,0,0,0-2.73-.73L31.425,54.4A2,2,0,0,1,30,55h0a2,2,0,0,0,1.425-.6l-.015.008-.02.02.02-.02.015-.008A2,2,0,0,0,30,51H22l-.453-.3a10,10,0,0,0-11.094,0L10,51H9v8Z" style="fill:#efebe5"/><polygon points="9 59 9 51 9 49 3 49 3 61 9 61 9 59" style="fill:#006df0"/><polygon points="55 5 55 12.987 55 15 61 15 61 3 55 3 55 5" style="fill:#006df0"/><rect x="15" y="29" width="26" height="18" style="fill:#ffe2bd"/><rect x="26" y="29" width="4" height="6" style="fill:#ffaf46"/><path d="M51.422,3.211A2,2,0,0,0,50.528,3H35.872a2,2,0,0,0-1.25.438L30.17,7H40L37.527,9.473a2.16,2.16,0,0,0,0,3.054l.006.006a2.16,2.16,0,0,0,2.992.059L43,10.092v3.867l.085.041,1.212.493a8,8,0,0,0,7.131-.55L53,13l2-.013V5Z" style="fill:#efebe5"/><path d="M28,47H41V35C41,41.633,35.186,47,28,47Z" style="fill:#ffdaaa"/><path d="M32,23H43V12C43,16.975,36.975,23,32,23Z" style="fill:#91dc5a"/><path d="M61,2H55a1,1,0,0,0-1,1v.382L51.869,2.316A3.014,3.014,0,0,0,50.528,2H35.872A3,3,0,0,0,34,2.658L29.819,6H13a1,1,0,0,0-1,1V23a1,1,0,0,0,1,1H43a1,1,0,0,0,1-1V15.448a9.026,9.026,0,0,0,7.943-.648L53.28,14l.72,0V15a1,1,0,0,0,1,1h6a1,1,0,0,0,1-1V3A1,1,0,0,0,61,2ZM14,22V8H37.929L36.808,9.122a3,3,0,0,0,4.242,4.242l.95-.95V22ZM52.994,12a.993.993,0,0,0-.509.143l-1.571.942a7.03,7.03,0,0,1-6.24.482L44,13.293V10.414l1.27-1.27.516.172a7.044,7.044,0,0,0,4.428,0l1.1-.367a1,1,0,0,0-.632-1.9l-1.1.368a5.029,5.029,0,0,1-3.162,0l-1.1-.368a1,1,0,0,0-1.023.242l-2,2h0L39.636,11.95a1,1,0,0,1-1.414,0,1,1,0,0,1,0-1.414l3.886-3.887a1,1,0,0,0-1.414-1.414L39.929,6H33.021l2.226-1.781A1,1,0,0,1,35.872,4H50.528a1.019,1.019,0,0,1,.447.105L54,5.618v6.375ZM60,14H56V4h4Z"/><path d="M28,12a1,1,0,0,1,1,1h2a3,3,0,0,0-2-2.816V9H27v1.184A2.993,2.993,0,0,0,28,16a1,1,0,1,1-1,1H25a3,3,0,0,0,2,2.816V21h2V19.816A2.993,2.993,0,0,0,28,14a1,1,0,0,1,0-2Z"/><path d="M22,14H20a1,1,0,0,0,0,2h2a1,1,0,0,0,0-2Z"/><path d="M36,14H34a1,1,0,0,0,0,2h2a1,1,0,0,0,0-2Z"/><path d="M43.458,49.773a2.989,2.989,0,0,0-4.1-1.1l-6.427,3.7A3,3,0,0,0,30,50H22.3l-.2-.134A10.968,10.968,0,0,0,10,49.8V49a1,1,0,0,0-1-1H3a1,1,0,0,0-1,1V61a1,1,0,0,0,1,1H9a1,1,0,0,0,1-1v-.136l.934.62A2.98,2.98,0,0,0,12.61,62H27.46a2.922,2.922,0,0,0,1.5-.4l13.4-7.73a3.017,3.017,0,0,0,1.5-2.606A2.97,2.97,0,0,0,43.458,49.773ZM8,60H4V50H8Zm33.36-7.866L27.945,59.873A.931.931,0,0,1,27.46,60H12.61a.977.977,0,0,1-.557-.173L10,58.464V52a1,1,0,0,0,.554-.167l.454-.3a8.976,8.976,0,0,1,9.985,0l.453.3A1,1,0,0,0,22,52h8a1,1,0,0,1,0,2H24a1,1,0,0,0,0,2h6a2.976,2.976,0,0,0,1.981-.764L40.368,50.4a.968.968,0,0,1,.746-.1.994.994,0,0,1,.611.472.966.966,0,0,1,.135.488A1.011,1.011,0,0,1,41.36,52.134Z"/><path d="M41,28H15a1,1,0,0,0-1,1V47a1,1,0,0,0,1,1H41a1,1,0,0,0,1-1V29A1,1,0,0,0,41,28ZM29,30v4H27V30ZM40,46H16V30h9v5a1,1,0,0,0,1,1h4a1,1,0,0,0,1-1V30h9Z"/><path d="M22,40H18a1,1,0,0,0,0,2h4a1,1,0,0,0,0-2Z"/><path d="M26,40H25a1,1,0,0,0,0,2h1a1,1,0,0,0,0-2Z"/><path d="M22,43H18a1,1,0,0,0,0,2h4a1,1,0,0,0,0-2Z"/><path d="M26,43H25a1,1,0,0,0,0,2h1a1,1,0,0,0,0-2Z"/></g></svg>
